<svg xmlns="http://www.w3.org/2000/svg" version="1.1" xmlns:xlink="http://www.w3.org/1999/xlink" xmlns:svgjs="http://svgjs.com/svgjs" width="512" height="512" x="0" y="0" viewBox="0 0 64 64" style="enable-background:new 0 0 512 512" xml:space="preserve" class=""><g><g id="Layer_18" data-name="Layer 18"><path d="m52 36h4v4h-4z" fill="#18232c" data-original="#a0a8b2" class=""></path><path d="m8 40h6a0 0 0 0 1 0 0v20a0 0 0 0 1 0 0h-6a2 2 0 0 1 -2-2v-16a2 2 0 0 1 2-2z" fill="#202d38" data-original="#88929f" class=""></path><path d="m8 36h4v4h-4z" fill="#18232c" data-original="#a0a8b2" class=""></path><path d="m4 42a2 2 0 0 0 -2 2v12a2 2 0 0 0 2 2h2v-16z" fill="#18232c" data-original="#a0a8b2" class=""></path><path d="m16 42h-2v16h2a2 2 0 0 0 2-2v-12a2 2 0 0 0 -2-2z" fill="#18232c" data-original="#a0a8b2" class=""></path><g fill="#88929f"><path d="m16 16-3.074-1.153a24.894 24.894 0 0 0 -5.926 16.153v5h6v-5a18.891 18.891 0 0 1 3.564-11.05z" fill="#202d38" data-original="#88929f" class=""></path><path d="m32 6a24.894 24.894 0 0 0 -11.46 2.783l1.46 1.217-2 3 1.008 2.521a18.98 18.98 0 0 1 29.992 15.479v5h6v-5a25 25 0 0 0 -25-25z" fill="#202d38" data-original="#88929f" class=""></path><path d="m15 11-2-5 4-2z" fill="#202d38" data-original="#88929f" class=""></path><path d="m21 22 5 2 2-4z" fill="#202d38" data-original="#88929f" class=""></path></g><path d="m7 11h2v2h-2z" fill="#18232c" data-original="#a0a8b2" class=""></path><path d="m28 15h2v2h-2z" fill="#18232c" data-original="#a0a8b2" class=""></path><path d="m17 26h2v2h-2z" fill="#18232c" data-original="#a0a8b2" class=""></path><path d="m52 40h6a0 0 0 0 1 0 0v20a0 0 0 0 1 0 0h-6a2 2 0 0 1 -2-2v-16a2 2 0 0 1 2-2z" fill="#202d38" transform="matrix(-1 0 0 -1 108 100)" data-original="#88929f" class=""></path><path d="m60 42a2 2 0 0 1 2 2v12a2 2 0 0 1 -2 2h-2v-16z" fill="#18232c" data-original="#a0a8b2" class=""></path><path d="m48 42h2v16h-2a2 2 0 0 1 -2-2v-12a2 2 0 0 1 2-2z" fill="#18232c" data-original="#a0a8b2" class=""></path></g></g></svg>