<svg xmlns="http://www.w3.org/2000/svg" version="1.1" xmlns:xlink="http://www.w3.org/1999/xlink" xmlns:svgjs="http://svgjs.com/svgjs" width="512" height="512" x="0" y="0" viewBox="0 0 496 496" style="enable-background:new 0 0 512 512" xml:space="preserve" class=""><g><path d="m400 112h-80c-17.671875 0-32-14.328125-32-32v-80zm0 0" fill="#18232c" data-original="#e93d5b" class=""></path><path d="m400 112v352c0 17.671875-14.328125 32-32 32h-336c-17.671875 0-32-14.328125-32-32v-432c0-17.671875 14.328125-32 32-32h256v80c0 17.671875 14.328125 32 32 32zm0 0" fill="#202d38" data-original="#fa5c66" class=""></path><g fill="#f1f2f2"><path d="m146.34375 269.65625c3.140625 3.03125 8.128906 2.988281 11.214844-.097656 3.085937-3.085938 3.128906-8.074219.097656-11.214844l-34.34375-34.34375 34.34375-34.34375c3.03125-3.140625 2.988281-8.128906-.097656-11.214844-3.085938-3.085937-8.074219-3.128906-11.214844-.097656l-34.34375 34.34375-34.34375-34.34375c-3.140625-3.03125-8.128906-2.988281-11.214844.097656-3.085937 3.085938-3.128906 8.074219-.097656 11.214844l34.34375 34.34375-34.34375 34.34375c-2.078125 2.007812-2.914062 4.984375-2.179688 7.78125.730469 2.796875 2.914063 4.980469 5.710938 5.710938 2.796875.734374 5.773438-.101563 7.78125-2.179688l34.34375-34.34375zm0 0" fill="#73828c" data-original="#f1f2f2" class=""></path><path d="m333.65625 178.34375c-3.125-3.121094-8.1875-3.121094-11.3125 0l-34.34375 34.34375-34.34375-34.34375c-3.140625-3.03125-8.128906-2.988281-11.214844.097656-3.085937 3.085938-3.128906 8.074219-.097656 11.214844l34.34375 34.34375-34.34375 34.34375c-2.078125 2.007812-2.914062 4.984375-2.179688 7.78125.730469 2.796875 2.914063 4.980469 5.710938 5.710938 2.796875.734374 5.773438-.101563 7.78125-2.179688l34.34375-34.34375 34.34375 34.34375c3.140625 3.03125 8.128906 2.988281 11.214844-.097656 3.085937-3.085938 3.128906-8.074219.097656-11.214844l-34.34375-34.34375 34.34375-34.34375c3.121094-3.125 3.121094-8.1875 0-11.3125zm0 0" fill="#73828c" data-original="#f1f2f2" class=""></path><path d="m200 304c-61.828125.066406-111.933594 50.171875-112 112 0 4.417969 3.582031 8 8 8s8-3.582031 8-8c0-53.019531 42.980469-96 96-96s96 42.980469 96 96c0 4.417969 3.582031 8 8 8s8-3.582031 8-8c-.066406-61.828125-50.171875-111.933594-112-112zm0 0" fill="#73828c" data-original="#f1f2f2" class=""></path></g></g></svg>